<svg width="512" height="512" viewBox="0 0 512 512" fill="none" xmlns="http://www.w3.org/2000/svg">
  <!-- Background -->
  <rect width="512" height="512" rx="76.8" fill="#000000"/>
  
  <!-- Main AI Brain/Circuit Pattern -->
  <g transform="translate(128 128)">
    <!-- Central Node -->
    <circle cx="128" cy="128" r="24" fill="#ffffff"/>
    
    <!-- Primary Connections -->
    <line x1="128" y1="104" x2="128" y2="48" stroke="#ffffff" stroke-width="4" stroke-linecap="round"/>
    <line x1="152" y1="128" x2="208" y2="128" stroke="#ffffff" stroke-width="4" stroke-linecap="round"/>
    <line x1="128" y1="152" x2="128" y2="208" stroke="#ffffff" stroke-width="4" stroke-linecap="round"/>
    <line x1="104" y1="128" x2="48" y2="128" stroke="#ffffff" stroke-width="4" stroke-linecap="round"/>
    
    <!-- Diagonal Connections -->
    <line x1="145" y1="111" x2="185" y2="71" stroke="#ffffff" stroke-width="3" stroke-linecap="round"/>
    <line x1="145" y1="145" x2="185" y2="185" stroke="#ffffff" stroke-width="3" stroke-linecap="round"/>
    <line x1="111" y1="145" x2="71" y2="185" stroke="#ffffff" stroke-width="3" stroke-linecap="round"/>
    <line x1="111" y1="111" x2="71" y2="71" stroke="#ffffff" stroke-width="3" stroke-linecap="round"/>
    
    <!-- Outer Nodes -->
    <circle cx="128" cy="48" r="12" fill="#ffffff"/>
    <circle cx="208" cy="128" r="12" fill="#ffffff"/>
    <circle cx="128" cy="208" r="12" fill="#ffffff"/>
    <circle cx="48" cy="128" r="12" fill="#ffffff"/>
    
    <!-- Corner Nodes -->
    <circle cx="185" cy="71" r="8" fill="#ffffff"/>
    <circle cx="185" cy="185" r="8" fill="#ffffff"/>
    <circle cx="71" cy="185" r="8" fill="#ffffff"/>
    <circle cx="71" cy="71" r="8" fill="#ffffff"/>
    
    <!-- Secondary Circuit Lines -->
    <line x1="48" y1="116" x2="48" y2="96" stroke="#ffffff" stroke-width="2" stroke-linecap="round"/>
    <line x1="208" y1="116" x2="208" y2="96" stroke="#ffffff" stroke-width="2" stroke-linecap="round"/>
    <line x1="128" y1="36" x2="128" y2="16" stroke="#ffffff" stroke-width="2" stroke-linecap="round"/>
    <line x1="128" y1="220" x2="128" y2="240" stroke="#ffffff" stroke-width="2" stroke-linecap="round"/>
    
    <!-- Data Flow Indicators -->
    <path d="M 160 128 L 170 123 L 170 133 Z" fill="#ffffff"/>
    <path d="M 128 96 L 123 86 L 133 86 Z" fill="#ffffff"/>
    <path d="M 96 128 L 86 133 L 86 123 Z" fill="#ffffff"/>
    <path d="M 128 160 L 133 170 L 123 170 Z" fill="#ffffff"/>
  </g>
</svg>